<svg width="95" height="94" viewBox="0 0 95 94" fill="none" xmlns="http://www.w3.org/2000/svg">
<path d="M61.8747 55.3812C62.3482 55.064 63.0163 55.3326 63.1334 55.8829C63.2212 56.7899 62.4596 57.6429 61.6015 57.8476C61.0837 58.014 60.5899 57.4987 60.6582 56.9958C60.7435 56.2993 61.2592 55.6946 61.8747 55.3808V55.3812Z" fill="#FDFDFD"/>
<path d="M46.0561 0.566316C47.244 0.369431 48.5164 0.610389 49.5122 1.29661C50.648 2.0722 51.3947 3.41415 51.3798 4.79235C51.3877 6.5635 51.3889 8.33588 51.3869 10.107C51.4096 11.2088 50.9146 12.2925 50.1248 13.055C48.4965 14.6926 45.5581 14.8385 43.8201 13.2926C43.1794 12.723 42.657 11.989 42.4592 11.1466C42.383 10.7298 42.3205 10.3076 42.3296 9.88296C42.3309 8.07103 42.323 6.26034 42.3296 4.44842C42.4219 3.60239 42.705 2.74647 43.2833 2.10186C43.9662 1.25912 44.9915 0.737252 46.0565 0.566316M46.369 3.34084C45.6815 3.52331 45.1968 4.19593 45.2084 4.8978C45.1835 6.48318 45.2084 8.06856 45.1972 9.65436C45.1902 10.0292 45.2233 10.4337 45.4692 10.7393C46.0528 11.65 47.5391 11.6669 48.2014 10.839C48.4473 10.5412 48.5031 10.1437 48.4928 9.7701C48.4837 8.10522 48.5052 6.43952 48.4688 4.77588C48.4518 3.76468 47.3193 3.02162 46.369 3.34084ZM64.7182 5.20631C65.9971 4.90851 67.2766 6.00579 67.2935 7.28226C67.3059 8.90635 67.2865 10.5313 67.2604 12.1554C67.2376 13.4895 65.6855 14.4678 64.4483 14.032C63.596 13.784 63.0017 12.9302 63.0062 12.0557C62.9777 10.502 63.0108 8.94713 62.988 7.39347C62.9541 6.38556 63.6879 5.3653 64.7178 5.20672M28.7661 5.32946C29.3717 5.0951 30.0898 5.11651 30.654 5.45056C31.3448 5.82662 31.7533 6.61375 31.7521 7.38605C31.7372 8.86393 31.7364 10.343 31.7281 11.8209C31.7384 12.2843 31.6759 12.7679 31.4094 13.1583C30.8895 13.9183 29.8514 14.3475 28.9569 14.0497C28.3187 13.8581 27.7918 13.3317 27.5923 12.6999C27.4238 12.2357 27.49 11.7328 27.4536 11.2492C27.4197 9.96286 27.4627 8.67405 27.4296 7.38729C27.4217 6.53096 27.9246 5.6182 28.7657 5.32946M15.2713 12.0042C15.886 11.3691 16.7929 11.0746 17.6658 11.0935C20.3037 11.105 22.9415 11.0585 25.5786 11.1071C25.3965 12.2386 25.5989 13.466 26.3422 14.3685C27.543 16.0433 30.0819 16.4193 31.8047 15.3525C32.5977 14.8216 33.25 14.0423 33.5311 13.125C33.7178 12.4647 33.7132 11.7682 33.6482 11.0923C35.8879 11.1162 38.1297 11.056 40.3681 11.1149C40.6173 12.8091 41.6972 14.3211 43.1119 15.2656C44.1931 15.9914 45.5064 16.2904 46.797 16.3312C48.7705 16.339 50.7722 15.493 52.0127 13.9405C52.6911 13.1196 53.1315 12.1195 53.3318 11.0774C55.9072 11.117 58.4846 11.0581 61.06 11.1046C60.8493 12.2369 61.1134 13.4669 61.8568 14.3615C63.1349 16.1351 65.9367 16.4737 67.6358 15.1144C68.8478 14.2004 69.4782 12.5912 69.1847 11.1034C70.2952 11.082 71.4062 11.0931 72.5167 11.084C73.4306 11.0593 74.3433 11.4601 74.936 12.1529C75.5254 12.7893 75.7075 13.6819 75.6744 14.5242C75.6856 24.5283 75.6868 34.534 75.6769 44.5381C73.6843 44.6481 71.6711 45.1905 70.0245 46.3422C68.6975 47.2982 67.6391 48.5891 66.8506 50.0101C64.6519 49.88 62.4487 50.6226 60.678 51.9048C58.9925 53.1451 57.6063 54.8017 56.7392 56.7042C50.999 56.6873 45.2589 56.6964 39.5175 56.7022C38.9678 56.6853 38.3453 56.8167 38.0038 57.2854C37.419 58.0157 37.6694 59.2819 38.5523 59.6579C39.1168 59.8593 39.7278 59.7428 40.3139 59.7667C45.5296 59.7745 50.7449 59.77 55.9594 59.7576C55.7772 61.2071 55.9515 62.727 56.6249 64.0384C56.1775 64.9219 55.7863 65.8347 55.4995 66.7825C50.2838 66.7623 45.0672 66.7858 39.8507 66.7779C39.2679 66.7746 38.5999 66.7532 38.1495 67.1857C37.33 67.9205 37.6715 69.5038 38.7422 69.8095C38.9893 69.9013 39.2567 69.8886 39.5163 69.8923C44.5999 69.891 49.6824 69.8935 54.7648 69.8865C54.5214 71.6441 54.5405 73.4358 54.8546 75.1843C49.8554 75.1571 44.8561 75.1831 39.8557 75.1752C39.3221 75.1785 38.7224 75.1221 38.2737 75.471C37.4521 76.069 37.5113 77.4448 38.3167 78.0305C38.7232 78.3406 39.2658 78.2863 39.7472 78.3044C45.0983 78.3011 50.4502 78.2727 55.8 78.3237C56.3666 80.4458 57.4581 82.3982 58.7636 84.1562C59.7731 85.5195 61.0227 86.6757 62.2575 87.8323C61.875 88.3497 61.5757 88.9206 61.2069 89.4461C52.8753 89.4663 44.5441 89.4552 36.2116 89.4573C29.9661 89.4721 23.7197 89.4325 17.4742 89.4676C17.9477 86.5188 18.5383 83.591 19.0764 80.6547C19.1174 80.3919 19.2234 80.1303 19.1604 79.863C18.7449 77.4563 18.2271 75.0694 17.7631 72.6717C16.7796 67.7694 15.7581 62.8736 14.7225 57.9811C14.6132 57.3888 14.3934 56.8126 14.3901 56.2067C14.4017 42.2752 14.3752 28.342 14.398 14.4105C14.3719 13.5398 14.6347 12.6245 15.2722 12.0038M24.7168 23.4763C24.2843 23.7786 24.1502 24.3302 24.1651 24.8285C24.1833 27.4354 24.1448 30.0435 24.1742 32.6504C24.1618 33.349 24.7089 34.0694 25.4523 34.0583C27.865 34.083 30.2786 34.0525 32.6913 34.0583C33.0509 34.0537 33.4491 34.0401 33.736 33.7934C34.1172 33.5014 34.2538 33.0005 34.2323 32.5396C34.2244 30.4649 34.248 28.3914 34.2211 26.318C34.0187 26.4687 33.8262 26.6326 33.6499 26.8139C32.3059 28.1525 31.0451 29.5748 29.6544 30.8682C29.4859 31.0234 29.2823 31.1594 29.0443 31.1692C28.6026 31.0708 28.3274 30.6832 28.0223 30.3846C27.2255 29.5896 26.4259 28.7992 25.6258 28.0075C25.365 27.7357 25.043 27.4708 24.9635 27.0857C24.752 26.2928 25.6965 25.4007 26.4635 25.8266C26.9391 26.1268 27.2909 26.5787 27.697 26.9613C28.127 27.4371 28.6382 27.8358 29.048 28.3305C29.3771 28.1006 29.6217 27.7777 29.9027 27.4968C30.8688 26.4539 31.9114 25.4855 32.8763 24.4426C33.1788 24.1209 33.4897 23.7881 33.8957 23.5953C33.8945 23.5558 33.8924 23.4755 33.8912 23.4347C33.6524 23.232 33.3539 23.1291 33.041 23.1493C30.8357 23.1797 28.6287 23.1616 26.4234 23.1628C25.8497 23.1966 25.2036 23.1019 24.7176 23.4767M38.3321 23.8771C37.5514 24.3981 37.515 25.6379 38.1772 26.2702C38.5336 26.678 39.1243 26.6973 39.6272 26.6973C46.6053 26.6882 53.5839 26.694 60.5621 26.7031C60.9913 26.7167 61.4499 26.6668 61.8038 26.3983C62.2012 26.1219 62.3601 25.635 62.4069 25.1754C62.3659 24.7029 62.2384 24.2082 61.8415 23.9059C61.375 23.4734 60.6991 23.5673 60.115 23.5673C53.3269 23.5706 46.5383 23.5537 39.7501 23.5719C39.2687 23.5867 38.7269 23.555 38.3321 23.8775M24.7636 38.2234C24.3459 38.4861 24.1729 38.9899 24.1696 39.4623C24.1618 42.2109 24.1742 44.9603 24.1618 47.7089C24.1597 48.1232 24.18 48.5627 24.4134 48.9219C24.6423 49.3602 25.1518 49.5719 25.6299 49.5706C28.055 49.5673 30.4826 49.5686 32.9077 49.5537C33.7293 49.6023 34.2894 48.795 34.2269 48.0384C34.2405 45.939 34.2165 43.8391 34.2438 41.7397C33.7136 42.1293 33.315 42.6582 32.8394 43.1076C32.0803 43.8968 31.3282 44.6954 30.5484 45.4653C30.1511 45.864 29.7997 46.3397 29.2819 46.5897C28.9209 46.7269 28.615 46.3962 28.3737 46.1774C27.4292 45.1708 26.4321 44.2127 25.4536 43.2386C25.2305 43.0017 24.9755 42.7389 24.9643 42.3938C24.8596 41.7142 25.5107 41.0214 26.2036 41.1231C26.668 41.2487 26.9627 41.654 27.2971 41.9666C27.865 42.561 28.4851 43.1035 29.0509 43.7003C29.0939 43.7003 29.1804 43.6991 29.2239 43.6991C30.3733 42.5404 31.459 41.322 32.6279 40.1827C33.1275 39.7103 33.5257 39.1093 34.1462 38.7819C33.9582 38.3313 33.4951 37.996 32.9955 38.0207C30.6536 38.0026 28.3092 38.0162 25.966 38.0116C25.5608 38.0219 25.1183 37.989 24.7644 38.2221M38.6384 38.031C37.8734 38.2472 37.498 39.1645 37.7323 39.8895C37.8701 40.5963 38.5825 41.0625 39.2845 41.0275C47.0606 41.0341 54.8377 41.0378 62.6138 41.0296C63.1031 41.0387 63.6573 40.981 64.0079 40.6004C64.5687 40.0851 64.6292 39.1654 64.1958 38.5541C63.9259 38.143 63.4309 37.9334 62.9495 37.9288C55.2131 37.9391 47.477 37.9276 39.7418 37.9354C39.373 37.9375 38.9951 37.9231 38.6379 38.0306M39.3213 46.0613C38.8503 46.051 38.3585 46.2108 38.0444 46.5741C37.4426 47.283 37.6644 48.5129 38.4893 48.9557C39.022 49.2082 39.6251 49.1324 40.1963 49.139C47.0631 49.1604 53.9312 49.1501 60.798 49.1377C61.2065 49.1344 61.6449 49.029 61.9429 48.7357C62.5927 48.1549 62.5803 47.0325 61.9371 46.4526C61.673 46.1762 61.2918 46.0473 60.9151 46.0481C53.7172 46.0539 46.5192 46.0378 39.3213 46.0605M24.5678 54.6781C24.2673 54.9467 24.1605 55.3598 24.1626 55.7495C24.1605 63.1092 24.1671 70.4693 24.1626 77.8291C24.1398 78.2842 24.2557 78.7612 24.5893 79.0919C24.8716 79.4182 25.336 79.4486 25.7388 79.461C28.1672 79.4396 30.596 79.4532 33.0232 79.4519C33.707 79.4598 34.2306 78.8337 34.2306 78.18C34.2476 75.6786 34.2409 73.1767 34.2202 70.6753C33.7219 71.1078 33.2881 71.6074 32.8146 72.0658C31.7769 73.1845 30.6821 74.2493 29.6101 75.3363C29.3812 75.5505 29.1444 75.8355 28.8021 75.8334C28.536 75.7383 28.3332 75.5311 28.1399 75.3363C27.2636 74.3963 26.3249 73.5186 25.42 72.6083C25.1903 72.3533 24.9316 72.0774 24.9068 71.7182C24.8306 71.076 25.4325 70.4001 26.0985 70.4973C26.5012 70.5348 26.7607 70.8858 27.0364 71.1415C27.6121 71.754 28.2164 72.3397 28.8141 72.9333C30.125 71.7557 31.2529 70.3931 32.5195 69.169C33.094 68.6142 33.589 67.972 34.2335 67.4905C34.2484 63.989 34.2323 60.4883 34.2438 56.9868C34.2302 56.4579 34.2641 55.9278 34.212 55.4026C34.147 54.7774 33.5472 54.2827 32.9168 54.3301C30.5269 54.3379 28.137 54.3325 25.7483 54.3449C25.3385 54.3494 24.8741 54.3696 24.5682 54.6777M2.91354 37.3514C4.02076 36.9448 5.25795 36.963 6.37758 37.3085C7.49639 37.6949 8.49102 38.5339 8.90286 39.6572C9.13051 40.2165 9.20667 40.8191 9.31595 41.4089C8.06303 41.5552 6.83413 41.8451 5.59115 42.0589C3.80553 42.3547 2.02239 42.6669 0.251671 43.0396C0.0331253 42.2084 -0.11133 41.3126 0.111769 40.4665C0.423445 39.041 1.5377 37.8337 2.91354 37.351M5.70042 43.1154C6.95788 42.9284 8.1959 42.6319 9.45005 42.4201C9.55353 42.7917 9.5912 43.1768 9.64252 43.557C6.63834 44.0587 3.64079 44.6057 0.645302 45.1592C0.546377 44.7754 0.49381 44.3812 0.426756 43.9915C1.02196 43.9779 1.6002 43.8342 2.18506 43.7411C3.35477 43.5261 4.52615 43.3074 5.70042 43.115M0.825354 46.154C3.86389 45.7268 6.866 45.0612 9.89873 44.6036C10.0738 45.546 10.3143 46.4757 10.4497 47.4267C7.42354 47.9259 4.40239 48.4585 1.38745 49.0199C1.21774 48.0619 0.951598 47.1186 0.825354 46.1536M72.484 47.7974C72.9393 47.666 73.4194 47.7035 73.8884 47.699C75.7878 47.7138 77.6873 47.6866 79.5855 47.7048C80.7635 47.708 81.6828 48.9561 81.4498 50.0773C81.3065 50.8553 80.6223 51.5259 79.8111 51.5609C78.9928 51.605 78.1724 51.5485 77.3541 51.5498C77.3566 51.9291 77.3541 52.3085 77.369 52.6891C79.5722 52.7978 81.7676 53.288 83.7772 54.2007C84.9448 53.3255 86.4138 52.8201 87.8844 52.9572C90.9433 53.143 93.7326 55.5641 94.2666 58.58C94.5762 60.1543 94.2053 61.9287 93.0637 63.0997C93.4677 64.1879 93.9743 65.2399 94.2802 66.3636C95.053 69.2118 95.2339 72.2322 94.6776 75.1357C94.1846 77.6701 93.2529 80.148 91.7769 82.2816C90.7255 83.8851 89.4085 85.3111 87.9051 86.5048C88.884 87.4979 89.8956 88.4584 90.9197 89.4062C91.2442 89.7369 91.6208 90.0529 91.781 90.5022C92.0327 91.1398 91.8551 91.9101 91.3737 92.3945C90.7036 93.0547 89.4594 93.168 88.7963 92.4418C87.4602 91.1349 86.1584 89.7942 84.8074 88.5033C80.2362 90.8305 74.7005 91.1975 69.8527 89.5223C69.3507 89.3617 68.8912 89.0861 68.3825 88.9506C67.0568 90.3198 65.7298 91.6877 64.3643 93.0185C63.6859 93.7377 62.3411 93.6392 61.7922 92.8088C61.404 92.2923 61.3257 91.5744 61.6146 90.9944C61.7715 90.7115 61.9718 90.452 62.2099 90.2312C63.2024 89.2991 64.123 88.297 65.0915 87.3422C65.0928 87.2858 65.0948 87.1725 65.0961 87.1144C63.1685 85.7473 61.543 83.9762 60.2434 82.0127C58.1063 78.7921 57.132 74.8791 57.2379 71.0402C57.3166 68.1726 58.0641 65.3359 59.375 62.7834C59.0302 61.9534 58.692 61.0835 58.6783 60.1687C58.4929 56.7405 61.2583 53.4564 64.6619 52.9716C65.4586 52.8403 66.2765 52.8868 67.0675 53.0384C67.8424 53.1924 68.5423 53.5738 69.2116 53.975C71.0928 53.2526 73.0705 52.7813 75.0871 52.666C75.0929 52.29 75.0883 51.9139 75.085 51.5391C74.2998 51.5267 73.5159 51.5901 72.7315 51.5638C71.7584 51.5391 71.0096 50.5695 71.0804 49.6341C71.0519 48.7938 71.6835 48.017 72.4848 47.797M61.8746 55.3812C61.2591 55.6951 60.7434 56.2998 60.6581 56.9963C60.5898 57.4992 61.0836 58.0145 61.6014 57.8481C62.4594 57.6429 63.2206 56.7903 63.1333 55.8833C63.0162 55.333 62.3481 55.0645 61.8746 55.3816M74.6409 55.4018C72.0258 55.7009 69.4686 56.5658 67.2538 57.993C63.9479 60.1345 61.5124 63.5376 60.4495 67.3097C59.185 71.5847 59.9068 76.3466 62.226 80.1394C63.7339 82.5107 65.8063 84.5615 68.3122 85.8742C71.099 87.4097 74.3516 88.0824 77.5255 87.8459C80.1021 87.6227 82.6182 86.7791 84.8248 85.4372C86.4966 84.4305 87.9064 83.0408 89.0831 81.4995C90.4966 79.6262 91.4925 77.4497 91.9942 75.162C92.7409 71.9468 92.3742 68.5248 91.1635 65.4681C90.1018 62.722 88.1907 60.3458 85.8513 58.5656C82.665 56.2145 78.6033 55.0006 74.6405 55.4014M8.16899 48.9544C8.98606 48.849 9.78036 48.5648 10.6057 48.5409C10.6454 49.1015 10.8321 49.6369 10.9244 50.1909C11.8507 55.0925 12.7705 59.9969 13.7034 64.8972C14.7059 69.9174 15.5677 74.966 16.6269 79.975C16.6712 80.3647 16.5325 80.7461 16.4812 81.13C16.042 83.7393 15.5379 86.3359 15.1223 88.9498C14.8889 90.3449 14.6865 91.747 14.3884 93.1309C12.191 89.7085 10.14 86.1934 7.9997 82.736C7.82793 82.4415 7.62056 82.156 7.54564 81.8199C6.71492 77.2944 5.84322 72.7759 5.03195 68.2472C3.885 62.1964 2.71942 56.149 1.59979 50.0937C2.39201 49.9545 3.18176 49.8005 3.97275 49.6555C4.97193 54.7041 5.90075 59.7675 6.86889 64.8227C7.39249 67.4184 7.84863 70.0253 8.35277 72.6244C8.76917 75.0401 9.30436 77.4361 9.67398 79.8609C9.81719 80.5064 9.18018 80.9652 9.11396 81.5711C9.13341 81.7808 9.25841 81.9595 9.36189 82.1375C10.3247 83.708 11.2862 85.279 12.2709 86.8372C12.5109 87.2326 12.7373 87.6392 13.0242 88.0057C13.2643 88.0589 13.5081 88.035 13.7456 87.9798C13.9153 87.5234 13.9427 87.0341 14.0221 86.5575C14.3408 84.5396 14.7084 82.5284 15.0975 80.5224C14.7378 79.9359 13.9323 79.6163 13.8421 78.8712C11.977 68.8942 10.0523 58.9285 8.16899 48.9544ZM4.83451 49.5051C5.65282 49.4079 6.45374 49.2003 7.27122 49.0928C8.15533 53.4902 8.94425 57.9082 9.80312 62.3109C10.7613 67.3299 11.7001 72.3525 12.6517 77.3739C12.7427 78.0535 12.9886 78.7237 12.9327 79.4157C12.7142 80.1686 11.7195 80.487 11.0548 80.1044C10.5709 79.8927 10.5122 79.3152 10.4219 78.8633C9.63549 74.8692 8.91735 70.8635 8.16196 66.8636C7.02742 61.0823 5.97029 55.2865 4.83451 49.5051ZM63.6134 64.6769C65.8908 60.583 70.2845 57.7303 74.9811 57.369C74.6214 58.1718 75.4455 59.1027 76.2912 58.935C77.0933 58.9338 77.5486 58.0561 77.3243 57.3464C79.0131 57.4823 80.6691 57.9399 82.1861 58.6883C85.2006 60.0645 87.6816 62.5432 89.0848 65.5295C89.8336 67.1499 90.2773 68.9054 90.3994 70.6843C89.7814 70.3795 88.8811 70.4318 88.4805 71.0534C88.1038 71.539 88.2872 72.2891 88.7719 72.6342C89.2272 73.0577 89.8973 72.8937 90.4184 72.6997C90.1986 75.2774 89.3497 77.8208 87.8281 79.9318C85.4792 83.3822 81.4713 85.543 77.3334 85.9339C77.4075 85.3268 77.0466 84.6348 76.4083 84.5149C75.5945 84.3143 74.6935 85.113 74.9257 85.9533C73.4724 85.7663 72.0374 85.4166 70.6752 84.8799C67.8929 83.7348 65.4814 81.7112 63.9143 79.1496C62.9152 77.5597 62.2914 75.7568 61.9648 73.9152C61.8808 73.4926 61.8489 73.0602 61.8535 72.6297C62.31 72.9028 62.8957 72.9934 63.3763 72.7203C64.0327 72.3986 64.173 71.4023 63.654 70.8994C63.2194 70.375 62.3804 70.3762 61.8444 70.7453C61.9536 68.622 62.584 66.5349 63.6138 64.6764M75.6856 60.9315C75.2009 61.1478 74.9356 61.6836 74.9584 62.1989C74.9811 64.8808 74.9414 67.5634 74.9786 70.2453C74.9844 70.38 74.9675 70.5282 74.8524 70.6189C74.0457 71.4002 74.2175 72.9053 75.1699 73.5001C76.0428 74.1274 77.4791 73.8114 77.8988 72.7945C77.9899 72.4081 78.4361 72.3459 78.7217 72.149C81.396 70.8083 84.0305 69.3926 86.6891 68.0202C87.0852 67.8143 87.3741 67.4053 87.3766 66.9534C87.4469 66.2931 86.8166 65.7223 86.1783 65.7247C85.6286 65.7008 85.187 66.0781 84.7251 66.3146C82.2759 67.5931 79.8508 68.9157 77.3835 70.1592C77.3711 67.4683 77.3938 64.7778 77.386 62.0881C77.3905 61.7664 77.2519 61.4596 77.0445 61.2182C76.71 60.8409 76.1442 60.7775 75.6856 60.9315ZM25.5918 59.9067C25.8853 59.8252 26.2437 59.7708 26.5033 59.9701C26.822 60.1819 27.0471 60.4957 27.3158 60.763C27.9714 61.4336 28.6461 62.0848 29.2934 62.7628C29.3402 62.7562 29.4313 62.7434 29.4776 62.7381C30.2752 61.9497 30.9888 61.0769 31.8187 60.3215C32.3638 59.7868 33.2447 60.3046 33.3937 60.9546C33.6259 61.532 33.1569 62.0362 32.7645 62.3987C31.9189 63.3296 31.0004 64.1925 30.1403 65.1098C29.9023 65.3351 29.6295 65.616 29.2732 65.583C28.9818 65.5752 28.7794 65.3326 28.579 65.1551C27.7185 64.2365 26.8116 63.3646 25.9296 62.4687C25.5732 62.0996 25.1431 61.7611 24.9668 61.2647C24.8008 60.7326 25.1274 60.1662 25.5914 59.9067H25.5918Z" fill="#1A1919"/>
</svg>
